<?xml version="1.0" encoding="utf-8"?>
<!-- Generator: Adobe Illustrator 16.0.0, SVG Export Plug-In . SVG Version: 6.00 Build 0)  -->
<!DOCTYPE svg PUBLIC "-//W3C//DTD SVG 1.1//EN" "http://www.w3.org/Graphics/SVG/1.1/DTD/svg11.dtd">
<svg version="1.1" id="Layer_1" xmlns="http://www.w3.org/2000/svg" xmlns:xlink="http://www.w3.org/1999/xlink" x="0px" y="0px"
	 width="640px" height="300px" viewBox="0 0 640 300" enable-background="new 0 0 640 300" xml:space="preserve">
<rect x="0.5" y="-0.5" fill="#1BB2AA" stroke="#000000" stroke-miterlimit="10" width="639" height="301"/>
<g>
	<path fill="#AD5514" d="M-16.296,311.729C-36.837,170.03,58.297,173.892,103.162,170.648
		c65.405-4.324,134.054,14.595,194.054,39.46c36.216,15.135,88.649,62.702,111.892,92.973"/>
	<g>
		<path d="M-14.85,311.331c-5.165-36.281-6.204-80.412,20.509-109.172c17.167-18.482,42.586-25.157,66.832-27.801
			c40.863-4.454,81.801-3.203,122.152,4.987c29.81,6.051,58.93,15.288,87.28,26.234c11.365,4.389,22.372,9.044,32.844,15.294
			c10.48,6.254,20.384,13.479,29.961,21.027c23.105,18.212,45.291,38.91,63.319,62.24c1.182,1.529,3.288-0.611,2.121-2.121
			c-13.801-17.86-30.15-33.817-47.072-48.692c-17.403-15.299-36.114-29.895-56.747-40.597
			c-11.288-5.855-23.516-10.113-35.429-14.489c-14.27-5.241-28.748-9.909-43.386-14.01c-28.853-8.084-58.509-13.551-88.447-15.241
			c-17.84-1.008-35.631,0.056-53.428,1.245c-11.311,0.756-22.613,1.951-33.7,4.377c-24.788,5.423-47.069,18.357-59.697,40.978
			c-16.102,28.842-14.499,64.976-10.006,96.537C-17.471,314.037-14.581,313.222-14.85,311.331L-14.85,311.331z"/>
	</g>
</g>
</svg>
