<?xml version="1.0" encoding="utf-8"?>
<!-- Generator: Adobe Illustrator 16.0.0, SVG Export Plug-In . SVG Version: 6.00 Build 0)  -->
<!DOCTYPE svg PUBLIC "-//W3C//DTD SVG 1.1//EN" "http://www.w3.org/Graphics/SVG/1.1/DTD/svg11.dtd">
<svg version="1.1" id="Layer_1" xmlns="http://www.w3.org/2000/svg" xmlns:xlink="http://www.w3.org/1999/xlink" x="0px" y="0px"
	 width="349.605px" height="144.672px" viewBox="0 0 349.605 144.672" enable-background="new 0 0 349.605 144.672"
	 xml:space="preserve">
<g>
	<path fill="#AD5514" d="M345.541,143.24C362.152,1.541,285.22,5.402,248.939,2.159c-52.89-4.324-108.404,14.595-156.924,39.46
		c-29.287,15.135-71.687,62.702-90.483,92.973"/>
	<g>
		<path d="M347.041,143.24c4.164-36.211,6.063-80.575-17.134-111.431c-13.457-17.9-34.25-25.99-55.813-28.893
			c-9.474-1.275-19.072-1.864-28.607-2.507c-28.937-1.951-58.068,3.246-85.685,11.593c-13.966,4.221-27.605,9.468-40.99,15.255
			c-11.922,5.154-24.161,10.482-35.126,17.497c-19.364,12.384-35.92,29.562-51.081,46.654
			c-11.784,13.286-22.942,27.354-32.368,42.426c-1.029,1.646,1.568,3.149,2.591,1.514c12.483-19.962,27.886-38.21,44.202-55.129
			c16.454-17.062,33.974-31.661,55.323-42.09c27.365-13.367,56.142-24.155,86.013-30.32c22.736-4.692,45.217-5.223,68.265-3.557
			c20.362,1.472,41.129,4.166,58.062,16.576c27.575,20.209,32.087,58.611,31.626,90.175c-0.157,10.775-1.047,21.533-2.277,32.235
			C343.82,145.16,346.822,145.139,347.041,143.24L347.041,143.24z"/>
	</g>
</g>
</svg>
